<svg version="1.1" id="Layer_1" xmlns="http://www.w3.org/2000/svg" xmlns:xlink="http://www.w3.org/1999/xlink" x="0px" y="0px"
	 width="100%" viewBox="0 0 96 81" enable-background="new 0 0 96 81" xml:space="preserve">
<path fill="#000000" opacity="1.000000" stroke="none" 
	d="
M55.000000,82.000000 
	C36.666668,82.000000 18.833340,82.000000 1.000007,82.000000 
	C1.000005,55.000008 1.000005,28.000015 1.000002,1.000018 
	C32.999989,1.000012 64.999977,1.000012 96.999969,1.000006 
	C96.999985,27.999983 96.999985,54.999966 96.999992,81.999969 
	C83.166664,82.000000 69.333336,82.000000 55.000000,82.000000 
M28.081861,63.277161 
	C33.614708,67.105782 42.342464,65.602676 44.310062,60.154499 
	C48.702782,47.991272 52.866966,35.742878 56.933907,23.466124 
	C58.281033,19.399588 56.675987,17.990963 52.371323,18.785820 
	C51.077522,19.024717 49.676510,19.192608 48.405659,18.956604 
	C43.301979,18.008829 41.406178,21.141321 40.023590,25.166889 
	C37.743893,31.804487 35.270714,38.377792 33.101048,45.050365 
	C31.235653,50.787174 29.680376,56.624825 28.081861,63.277161 
M58.903950,35.198990 
	C57.623901,38.383053 56.238541,41.529522 55.085644,44.758980 
	C52.657677,51.560120 56.043304,57.531101 59.363129,62.604099 
	C60.799534,64.799057 66.376251,64.449036 70.114296,64.924988 
	C73.548988,65.362312 74.693527,63.413174 73.633781,60.330902 
	C70.568024,51.414104 67.439766,42.517330 64.178665,33.670712 
	C63.679047,32.315365 62.346386,31.267101 61.399010,30.076807 
	C60.584850,31.519979 59.770691,32.963150 58.903950,35.198990 
z"/>
<path fill="#0BBB66" opacity="1.000000" stroke="none" 
	d="
M28.034916,62.847523 
	C29.680376,56.624825 31.235653,50.787174 33.101048,45.050365 
	C35.270714,38.377792 37.743893,31.804487 40.023590,25.166889 
	C41.406178,21.141321 43.301979,18.008829 48.405659,18.956604 
	C49.676510,19.192608 51.077522,19.024717 52.371323,18.785820 
	C56.675987,17.990963 58.281033,19.399588 56.933907,23.466124 
	C52.866966,35.742878 48.702782,47.991272 44.310062,60.154499 
	C42.342464,65.602676 33.614708,67.105782 28.034916,62.847523 
z"/>
<path fill="#0DBA67" opacity="1.000000" stroke="none" 
	d="
M58.930241,34.802658 
	C59.770691,32.963150 60.584850,31.519979 61.399010,30.076809 
	C62.346386,31.267101 63.679047,32.315365 64.178665,33.670712 
	C67.439766,42.517330 70.568024,51.414104 73.633781,60.330902 
	C74.693527,63.413174 73.548988,65.362312 70.114296,64.924988 
	C66.376251,64.449036 60.799534,64.799057 59.363129,62.604099 
	C56.043304,57.531101 52.657677,51.560120 55.085644,44.758980 
	C56.238541,41.529522 57.623901,38.383053 58.930241,34.802658 
z"/>
</svg>